<?xml version="1.0"?><svg fill="#000000" xmlns="http://www.w3.org/2000/svg"  viewBox="0 0 24 24" width="50px" height="50px">    <path d="M21,5H3C1.897,5,1,5.897,1,7v11c0,1.103,0.897,2,2,2h18c1.103,0,2-0.897,2-2V7C23,5.897,22.103,5,21,5z M8,14 c0.551,0,1-0.449,1-1h1c0,1.105-0.895,2-2,2s-2-0.895-2-2v-1c0-1.105,0.895-2,2-2s2,0.895,2,2H9c0-0.551-0.449-1-1-1s-1,0.449-1,1v1 C7,13.551,7.449,14,8,14z M12.655,12.066c0.224,0.082,1.332,0.576,1.341,1.584c0.002,0.214-0.053,1.335-1.486,1.35 c-1.559,0.017-1.665-1.324-1.665-1.601h0.975c0,0.147,0.013,0.857,0.69,0.802c0.407-0.034,0.495-0.327,0.509-0.545 c0.023-0.367-0.327-0.587-0.697-0.765c-0.52-0.25-1.343-0.557-1.358-1.531c-0.013-0.877,0.632-1.385,1.526-1.36 c1.423,0.041,1.51,1.283,1.51,1.504h-0.968c0-0.103,0.017-0.698-0.559-0.698c-0.175,0-0.568,0.078-0.538,0.561 C11.964,11.81,12.548,12.019,12.655,12.066z M16.655,12.066c0.224,0.082,1.332,0.576,1.341,1.584 c0.002,0.214-0.053,1.335-1.486,1.35c-1.559,0.017-1.665-1.324-1.665-1.601h0.975c0,0.147,0.013,0.857,0.69,0.802 c0.407-0.034,0.495-0.327,0.509-0.545c0.023-0.367-0.327-0.587-0.697-0.765c-0.52-0.25-1.343-0.557-1.358-1.531 c-0.013-0.877,0.632-1.385,1.526-1.36c1.423,0.041,1.51,1.283,1.51,1.504h-0.968c0-0.103,0.017-0.698-0.559-0.698 c-0.175,0-0.568,0.078-0.538,0.561C15.964,11.81,16.548,12.019,16.655,12.066z"/></svg>